<svg xmlns="http://www.w3.org/2000/svg" width="82" height="82" viewBox="0 0 82 82" fill="none">
  <path d="M61.5 61.4235C72.8219 50.2398 72.8219 32.1073 61.5 20.9235C50.1782 9.73976 31.8218 9.73977 20.5 20.9235C9.17816 32.1073 9.17816 50.2398 20.5 61.4235C31.8218 72.6073 50.1782 72.6073 61.5 61.4235Z" fill="#E4E4E4"/>
  <path d="M69.7549 45.0423C66.5642 44.0843 55.012 34.0604 51.0651 33.4532C45.5914 32.611 41.0561 42.2999 41.0561 42.2999C41.0561 42.2999 33.1048 24.5303 29.1271 24.9353C23.0531 25.5539 16.8483 43.661 12.2465 45.0423C14.0737 59.1213 26.2508 70.0023 41.0007 70.0023C55.7506 70.0023 67.9276 59.1217 69.7549 45.0423Z" fill="#E4E4E4"/>
  <path d="M41.0564 42.1092C73.997 48.1289 22.9017 50.5229 19.902 60.5857C20.0279 60.9442 20.0279 60.9442 20.0279 60.9442C25.3071 66.4074 32.7512 69.8116 41.0006 69.8116C42.3698 69.8116 43.7169 69.7172 45.0357 69.5361C44.9873 69.4673 45.0357 69.5361 44.8676 69.3295C29.5653 59.7302 88.3549 43.3532 41.0564 42.1092Z" fill="#E4E4E4"/>
  <path d="M45.1707 12.8315C43.56 14.7313 42.5885 17.1779 42.5885 19.8501C42.5885 25.891 47.5459 30.7879 53.6613 30.7879C58.3857 30.7879 62.4171 27.8637 64.007 23.7485C59.5085 17.9613 52.8231 13.9207 45.1707 12.8315Z" fill="#E4E4E4"/>
  <path d="M71.3678 41.1735C71.3678 34.3813 69.0689 28.11 65.2016 23.0758C65.1708 23.0223 65.1364 22.9705 65.0978 22.9206C60.619 17.1589 54.3187 13.2609 47.2076 11.8075C47.1498 11.7958 47.092 11.7836 47.0341 11.7723C46.8771 11.7411 46.7196 11.7115 46.5617 11.6828C46.4518 11.6625 46.3419 11.6426 46.2316 11.6236C46.1209 11.6046 46.0094 11.5868 45.8982 11.5689C45.749 11.545 45.6001 11.5215 45.45 11.4997C45.4222 11.4956 45.3947 11.4907 45.3668 11.4867C45.3594 11.4855 45.352 11.4859 45.3442 11.4851C43.925 11.2834 42.475 11.1768 41.0003 11.1768C24.2559 11.1768 10.6333 24.6333 10.6333 41.1735C10.6333 42.4718 10.7174 43.7506 10.8802 45.0059C10.881 45.012 10.881 45.018 10.8818 45.0245C11.7225 51.5 14.6422 57.2832 18.9245 61.7539C18.9582 61.7985 18.9938 61.8418 19.0328 61.8824C24.4859 67.5254 31.7266 70.7785 39.5524 71.1362C39.6352 71.1398 39.7181 71.1423 39.8009 71.1455C39.9547 71.1512 40.108 71.1581 40.2626 71.1613C40.5079 71.167 40.7539 71.1702 41.0003 71.1702C41.2497 71.1702 41.4982 71.167 41.7463 71.1609C41.8172 71.1593 41.8882 71.156 41.9591 71.1536C42.0329 71.1512 42.1067 71.1483 42.1809 71.1455C42.281 71.1419 42.3811 71.1386 42.4807 71.1338C42.6099 71.1277 42.7382 71.1192 42.8666 71.1115C42.9306 71.1074 42.9945 71.1046 43.0585 71.1005C43.095 71.0981 43.1315 71.0961 43.168 71.0933C43.1799 71.0924 43.1914 71.0912 43.2028 71.0904C43.3525 71.0799 43.5014 71.0669 43.6506 71.0544C43.7372 71.0471 43.8241 71.0398 43.9106 71.0313C43.9877 71.024 44.0652 71.0179 44.1423 71.0098C44.201 71.0037 44.2588 70.9964 44.317 70.99C44.3506 70.9863 44.3839 70.9823 44.4171 70.9786C44.4782 70.9717 44.5393 70.9653 44.6004 70.958C44.7537 70.9401 44.9067 70.9211 45.0592 70.9008C45.1146 70.8936 45.1704 70.8883 45.2253 70.881C45.2417 70.8786 45.2573 70.8741 45.2733 70.8713C50.5636 70.132 55.4197 68.0419 59.4712 64.9653C59.4831 64.956 59.4954 64.9471 59.5073 64.9378C59.6582 64.8228 59.8083 64.7065 59.9572 64.5886C60.0027 64.5526 60.0482 64.5161 60.0937 64.4801C60.2139 64.3837 60.3336 64.2868 60.4521 64.1888C60.5308 64.124 60.6092 64.058 60.6871 63.9924C60.7744 63.9186 60.8618 63.8453 60.9479 63.7708C61.0676 63.6675 61.1865 63.563 61.3046 63.4581C61.3502 63.4176 61.3961 63.3775 61.4416 63.3366C66.6118 58.6896 70.1753 52.2931 71.1185 45.0241C71.1193 45.0172 71.1193 45.0108 71.1201 45.0043C71.2837 43.7498 71.3678 42.4714 71.3678 41.1735ZM45.7588 14.3007C45.7851 14.3052 45.8117 14.3092 45.838 14.3137C45.8913 14.323 45.9442 14.3331 45.9971 14.3429C46.1804 14.3761 46.3633 14.4101 46.5449 14.447C46.5568 14.4494 46.5687 14.4518 46.581 14.4542C52.9187 15.744 58.4694 19.1863 62.4151 23.9698C60.8203 27.2642 57.395 29.4293 53.6609 29.4293C48.314 29.4293 43.9639 25.1323 43.9639 19.8506C43.9643 17.8581 44.5971 15.9145 45.7588 14.3007ZM41.0008 13.894C41.5868 13.894 42.1678 13.9143 42.7448 13.9499C41.7491 15.7484 41.2136 17.7779 41.2136 19.8498C41.2136 26.6299 46.7979 32.1461 53.6617 32.1461C57.965 32.1461 61.9481 29.9057 64.1985 26.388C66.9923 30.6506 68.617 35.7277 68.617 41.1731C68.617 41.6989 68.6002 42.2206 68.5703 42.7387C67.0489 41.8087 64.9039 40.2678 62.94 38.8565C57.4373 34.903 53.6531 32.2846 51.2776 31.9189C50.984 31.8735 50.6842 31.8508 50.3869 31.8508C47.7883 31.8508 45.1966 33.5311 42.6841 36.8445C42.094 37.6231 41.5802 38.3984 41.157 39.0878C40.3508 37.4185 39.1874 35.1015 37.8699 32.7622C33.1852 24.4457 30.8097 23.3792 29.2633 23.3792C29.1706 23.3792 29.0775 23.3836 28.9861 23.3929C24.9469 23.8045 21.4494 29.6444 18.0667 35.2923C16.5863 37.764 14.8488 40.6643 13.4099 42.2996C13.3943 41.9257 13.3845 41.551 13.3845 41.1735C13.3845 26.1316 25.7732 13.894 41.0008 13.894ZM59.5627 61.355C59.5602 61.357 59.5577 61.3594 59.5553 61.3614C59.4097 61.4923 59.2621 61.6211 59.1132 61.7491C59.0804 61.7774 59.0476 61.8054 59.0144 61.8337C58.8992 61.9318 58.7827 62.0286 58.6658 62.125C58.606 62.1744 58.5461 62.2238 58.4858 62.2728C58.4022 62.3409 58.3173 62.4073 58.2328 62.4742C58.1426 62.5455 58.0524 62.6171 57.9613 62.6872C57.9252 62.7152 57.8883 62.7423 57.8522 62.7699C54.2912 65.4818 50.0543 67.3504 45.4669 68.0937C43.6814 66.9283 43.6396 65.9865 43.6256 65.6718C43.5079 62.9611 48.6449 59.0914 52.7723 55.9817C57.7907 52.2012 62.1248 48.9359 61.0643 45.6937C60.5177 44.022 58.6954 42.8805 55.3295 42.1007C52.5168 41.449 48.5678 41.0289 43.3033 40.8235C44.8747 38.1805 47.6345 34.5697 50.3869 34.5697C50.5427 34.5697 50.7002 34.5818 50.854 34.6053C52.7505 34.8969 57.7046 38.4563 61.3219 41.0552C64.456 43.307 66.6827 44.8864 68.2377 45.6815C67.1953 51.8475 64.0534 57.3209 59.5627 61.355ZM39.7984 42.6585C39.8009 42.6638 39.8042 42.6682 39.8062 42.6731C39.8308 42.7266 39.8583 42.7784 39.8895 42.8278C39.8936 42.8343 39.8981 42.8404 39.9022 42.8465C39.9309 42.8902 39.9625 42.9319 39.9957 42.9724C40.0031 42.9813 40.0104 42.9907 40.0178 42.9992C40.0555 43.0421 40.0961 43.083 40.1392 43.1211C40.1458 43.1268 40.1527 43.1324 40.1593 43.1381C40.2007 43.1734 40.2446 43.2066 40.2905 43.2369C40.2954 43.2402 40.2999 43.2438 40.3049 43.2467C40.3549 43.2791 40.4078 43.3078 40.4623 43.3338C40.4693 43.337 40.4763 43.3398 40.4832 43.3431C40.5337 43.3658 40.5858 43.386 40.6395 43.4026C40.6452 43.4046 40.651 43.4067 40.6571 43.4083C40.7055 43.4229 40.7547 43.4354 40.8056 43.4448C47.4204 44.6539 49.668 45.5706 50.4254 46.0218C50.0277 46.2839 49.1924 46.7153 47.4557 47.3184C45.4545 48.0131 42.8264 48.7455 40.0445 49.5208C35.7272 50.7235 30.8338 52.0869 26.8771 53.704C23.2451 55.1886 20.8601 56.6979 19.5651 58.3522C16.6019 54.7511 14.5487 50.3925 13.7531 45.62C15.9273 44.1998 18.0408 40.6708 20.434 36.6752C23.1848 32.0825 26.6085 26.3666 29.2629 26.096C29.2797 26.096 31.0159 26.1871 35.4566 34.069C37.8457 38.3089 39.7792 42.6156 39.7984 42.6585ZM40.3291 68.4445C40.2434 68.4425 40.1585 68.4388 40.0732 68.436C39.9379 68.4315 39.8025 68.4271 39.6676 68.4206C39.5577 68.4153 39.4478 68.4084 39.3383 68.402C39.2317 68.3955 39.1255 68.3894 39.0193 68.3821C38.8918 68.3732 38.7646 68.3627 38.6379 68.3521C38.5539 68.3452 38.4698 68.338 38.3861 68.3299C38.2418 68.3165 38.0975 68.3019 37.9535 68.2861C37.8941 68.2796 37.835 68.2727 37.7755 68.2659C37.6099 68.2464 37.4446 68.2266 37.2798 68.2043C37.2548 68.201 37.2302 68.1974 37.2055 68.1938C32.1633 67.5027 27.5201 65.4543 23.6978 62.417C23.6416 62.3721 23.5846 62.3279 23.5288 62.2826C23.4485 62.2173 23.3689 62.1513 23.2889 62.0853C23.1954 62.0079 23.1015 61.9302 23.0093 61.8516C22.9568 61.807 22.9051 61.762 22.853 61.7175C22.7288 61.6101 22.6053 61.5024 22.4831 61.393C22.4585 61.3712 22.4343 61.3493 22.4097 61.3274C22.085 61.0349 21.7672 60.7348 21.4571 60.4273C23.4107 56.979 33.8003 54.0843 40.7924 52.1364C49.6582 49.6662 53.5727 48.4664 53.4538 45.9084C53.4284 45.3648 53.2389 44.8572 52.7329 44.3655C53.4534 44.4817 54.1103 44.6089 54.7021 44.7458C57.9585 45.5005 58.3931 46.3633 58.4473 46.5286C58.5063 46.7088 58.5633 47.4327 56.8222 49.1668C55.3951 50.5882 53.3111 52.1582 51.1045 53.8202C45.9885 57.6745 40.6985 61.66 40.8777 65.7876C40.9192 66.7363 41.2407 67.6222 41.8385 68.4384C41.8107 68.4392 41.7828 68.4404 41.7549 68.4413C41.5035 68.4481 41.2525 68.4526 41.0016 68.4526C40.776 68.453 40.5526 68.4498 40.3291 68.4445Z" fill="#DADADA"/>
</svg>